<svg width="137" height="52" viewBox="0 0 137 52" fill="none" xmlns="http://www.w3.org/2000/svg">
<path d="M77.1719 24.2969H69.7812V31.6875H67.2031V24.2969H59.8125V21.75H67.2031V14.3594H69.7812V21.75H77.1719V24.2969Z" fill="black"/>
<g clip-path="url(#clip0_3_27)">
<path d="M116.224 50.589C114.912 52.2408 112.252 51.3358 112.221 49.2266L111.759 18.3774H132.502C136.259 18.3774 138.354 22.7169 136.018 25.6594L116.224 50.589Z" fill="url(#paint0_linear_3_27)"/>
<path d="M116.224 50.589C114.912 52.2408 112.252 51.3358 112.221 49.2266L111.759 18.3774H132.502C136.259 18.3774 138.354 22.7169 136.018 25.6594L116.224 50.589Z" fill="url(#paint1_linear_3_27)" fill-opacity="0.2"/>
<path d="M107.788 0.950012C109.099 -0.702006 111.759 0.203181 111.791 2.31238L111.993 33.1616H91.5097C87.7525 33.1616 85.657 28.8221 87.9934 25.8796L107.788 0.950012Z" fill="#3ECF8E"/>
</g>
<g clip-path="url(#clip1_3_27)">
<path fill-rule="evenodd" clip-rule="evenodd" d="M1.1567 14.8778C0.440596 15.2942 0 16.06 0 16.8883V35.2152C0 36.0436 0.440596 36.8094 1.1567 37.2257L25 51.0881V51.0154L48.8433 37.153C49.5594 36.7367 50 35.9709 50 35.1426V17.5714C50 16.6747 49.0279 16.1155 48.2527 16.5662L26.1567 29.4127C25.4406 29.829 25 30.5948 25 31.4232V34.809L1.93751 21.4006L25 7.9922V3.03653C25 2.13985 24.028 1.5806 23.2528 2.03129L1.1567 14.8778ZM32.4113 31.6613C32.2322 31.7654 32.1221 31.9568 32.1221 32.1639V33.6497C32.1221 33.8739 32.3651 34.0137 32.5589 33.901L44.3329 27.0557C44.5119 26.9516 44.6221 26.7601 44.6221 26.553V25.0672C44.6221 24.8431 44.3791 24.7032 44.1853 24.8159L32.4113 31.6613Z" fill="#335BF1"/>
<path d="M16.6666 26.5782C16.6666 25.7499 17.1072 24.9841 17.8233 24.5678L39.9194 11.7212C40.6946 11.2705 41.6666 11.8298 41.6666 12.7264V17.6821L16.6666 32.217V26.5782Z" fill="#335BF1"/>
<path d="M8.33332 21.7333C8.33332 20.905 8.77392 20.1391 9.49002 19.7228L31.5861 6.87626C32.3613 6.42557 33.3333 6.98482 33.3333 7.8815V12.8372L8.33332 27.372V21.7333Z" fill="#335BF1"/>
</g>
<defs>
<linearGradient id="paint0_linear_3_27" x1="111.759" y1="25.2174" x2="130.194" y2="32.9493" gradientUnits="userSpaceOnUse">
<stop stop-color="#249361"/>
<stop offset="1" stop-color="#3ECF8E"/>
</linearGradient>
<linearGradient id="paint1_linear_3_27" x1="103.585" y1="14.0266" x2="111.993" y2="29.8535" gradientUnits="userSpaceOnUse">
<stop/>
<stop offset="1" stop-opacity="0"/>
</linearGradient>
<clipPath id="clip0_3_27">
<rect width="50" height="51.8349" fill="white" transform="translate(87)"/>
</clipPath>
<clipPath id="clip1_3_27">
<rect width="50" height="50" fill="white" transform="translate(0 1)"/>
</clipPath>
</defs>
</svg>
