<svg xmlns="http://www.w3.org/2000/svg" fill="none" viewBox="0 0 1200 630" height="630" width="1200">
<g clip-path="url(#clip0_19584_163746)">
<rect fill="black" height="630" width="1200"></rect>
<rect fill="url(#paint0_linear_19584_163746)" height="630" width="1200"></rect>
<path fill="white" d="M0 0H1200V256L0 0Z" opacity="0.1"></path>
<g clip-path="url(#clip1_19584_163746)" opacity="0.1">
<rect fill="white" height="16" width="16" y="406" x="160"></rect>
<rect fill="white" height="16" width="16" y="406" x="208"></rect>
<rect fill="white" height="16" width="16" y="406" x="256"></rect>
<rect fill="white" height="16" width="16" y="406" x="304"></rect>
<rect fill="white" height="16" width="16" y="406" x="352"></rect>
<rect fill="white" height="16" width="16" y="406" x="400"></rect>
<rect fill="white" height="16" width="16" y="406" x="448"></rect>
<rect fill="white" height="16" width="16" y="406" x="496"></rect>
<rect fill="white" height="16" width="16" y="406" x="544"></rect>
<rect fill="white" height="16" width="16" y="406" x="592"></rect>
<rect fill="white" height="16" width="16" y="406" x="640"></rect>
<rect fill="white" height="16" width="16" y="406" x="688"></rect>
<rect fill="white" height="16" width="16" y="406" x="736"></rect>
<rect fill="white" height="16" width="16" y="406" x="784"></rect>
<rect fill="white" height="16" width="16" y="406" x="832"></rect>
<rect fill="white" height="16" width="16" y="406" x="880"></rect>
<rect fill="white" height="16" width="16" y="406" x="928"></rect>
<rect fill="white" height="16" width="16" y="406" x="976"></rect>
<rect fill="white" height="16" width="16" y="406" x="1024"></rect>
<rect fill="white" height="16" width="16" y="406" x="1072"></rect>
<rect fill="white" height="16" width="16" y="406" x="1120"></rect>
<rect fill="white" height="16" width="16" y="406" x="1168"></rect>
<rect fill="white" height="16" width="16" y="454" x="160"></rect>
<rect fill="white" height="16" width="16" y="454" x="208"></rect>
<rect fill="white" height="16" width="16" y="454" x="256"></rect>
<rect fill="white" height="16" width="16" y="454" x="304"></rect>
<rect fill="white" height="16" width="16" y="454" x="352"></rect>
<rect fill="white" height="16" width="16" y="454" x="400"></rect>
<rect fill="white" height="16" width="16" y="454" x="448"></rect>
<rect fill="white" height="16" width="16" y="454" x="496"></rect>
<rect fill="white" height="16" width="16" y="454" x="544"></rect>
<rect fill="white" height="16" width="16" y="454" x="592"></rect>
<rect fill="white" height="16" width="16" y="454" x="640"></rect>
<rect fill="white" height="16" width="16" y="454" x="688"></rect>
<rect fill="white" height="16" width="16" y="454" x="736"></rect>
<rect fill="white" height="16" width="16" y="454" x="784"></rect>
<rect fill="white" height="16" width="16" y="454" x="832"></rect>
<rect fill="white" height="16" width="16" y="454" x="880"></rect>
<rect fill="white" height="16" width="16" y="454" x="928"></rect>
<rect fill="white" height="16" width="16" y="454" x="976"></rect>
<rect fill="white" height="16" width="16" y="454" x="1024"></rect>
<rect fill="white" height="16" width="16" y="454" x="1072"></rect>
<rect fill="white" height="16" width="16" y="454" x="1120"></rect>
<rect fill="white" height="16" width="16" y="454" x="1168"></rect>
<rect fill="white" height="16" width="16" y="502" x="160"></rect>
<rect fill="white" height="16" width="16" y="502" x="208"></rect>
<rect fill="white" height="16" width="16" y="502" x="256"></rect>
<rect fill="white" height="16" width="16" y="502" x="304"></rect>
<rect fill="white" height="16" width="16" y="502" x="352"></rect>
<rect fill="white" height="16" width="16" y="502" x="400"></rect>
<rect fill="white" height="16" width="16" y="502" x="448"></rect>
<rect fill="white" height="16" width="16" y="502" x="496"></rect>
<rect fill="white" height="16" width="16" y="502" x="544"></rect>
<rect fill="white" height="16" width="16" y="502" x="592"></rect>
<rect fill="white" height="16" width="16" y="502" x="640"></rect>
<rect fill="white" height="16" width="16" y="502" x="688"></rect>
<rect fill="white" height="16" width="16" y="502" x="736"></rect>
<rect fill="white" height="16" width="16" y="502" x="784"></rect>
<rect fill="white" height="16" width="16" y="502" x="832"></rect>
<rect fill="white" height="16" width="16" y="502" x="880"></rect>
<rect fill="white" height="16" width="16" y="502" x="928"></rect>
<rect fill="white" height="16" width="16" y="502" x="976"></rect>
<rect fill="white" height="16" width="16" y="502" x="1024"></rect>
<rect fill="white" height="16" width="16" y="502" x="1072"></rect>
<rect fill="white" height="16" width="16" y="502" x="1120"></rect>
<rect fill="white" height="16" width="16" y="502" x="1168"></rect>
<rect fill="white" height="16" width="16" y="550" x="160"></rect>
<rect fill="white" height="16" width="16" y="550" x="208"></rect>
<rect fill="white" height="16" width="16" y="550" x="256"></rect>
<rect fill="white" height="16" width="16" y="550" x="304"></rect>
<rect fill="white" height="16" width="16" y="550" x="352"></rect>
<rect fill="white" height="16" width="16" y="550" x="400"></rect>
<rect fill="white" height="16" width="16" y="550" x="448"></rect>
<rect fill="white" height="16" width="16" y="550" x="496"></rect>
<rect fill="white" height="16" width="16" y="550" x="544"></rect>
<rect fill="white" height="16" width="16" y="550" x="592"></rect>
<rect fill="white" height="16" width="16" y="550" x="640"></rect>
<rect fill="white" height="16" width="16" y="550" x="688"></rect>
<rect fill="white" height="16" width="16" y="550" x="736"></rect>
<rect fill="white" height="16" width="16" y="550" x="784"></rect>
<rect fill="white" height="16" width="16" y="550" x="832"></rect>
<rect fill="white" height="16" width="16" y="550" x="880"></rect>
<rect fill="white" height="16" width="16" y="550" x="928"></rect>
<rect fill="white" height="16" width="16" y="550" x="976"></rect>
<rect fill="white" height="16" width="16" y="550" x="1024"></rect>
<rect fill="white" height="16" width="16" y="550" x="1072"></rect>
<rect fill="white" height="16" width="16" y="550" x="1120"></rect>
<rect fill="white" height="16" width="16" y="550" x="1168"></rect>
</g>
<path fill="white" d="M70.272 265V248.808H64.768V244.2H81.28V248.808H75.776V265H70.272ZM93.3785 265.384C90.4558 265.384 88.2798 264.541 86.8505 262.856C85.4425 261.149 84.7385 258.515 84.7385 254.952V244.2H90.2425V255.592C90.2425 257.448 90.4878 258.76 90.9785 259.528C91.4905 260.275 92.2905 260.648 93.3785 260.648C94.4665 260.648 95.2665 260.275 95.7785 259.528C96.3118 258.76 96.5785 257.448 96.5785 255.592V244.2H101.891V254.952C101.891 258.515 101.197 261.149 99.8105 262.856C98.4238 264.541 96.2798 265.384 93.3785 265.384ZM110.835 265V248.808H105.331V244.2H121.843V248.808H116.339V265H110.835ZM133.228 265.384C131.778 265.384 130.455 265.139 129.26 264.648C128.087 264.157 127.074 263.453 126.22 262.536C125.388 261.597 124.738 260.456 124.268 259.112C123.799 257.747 123.564 256.211 123.564 254.504C123.564 252.797 123.799 251.283 124.268 249.96C124.738 248.616 125.388 247.496 126.22 246.6C127.074 245.683 128.087 244.989 129.26 244.52C130.455 244.051 131.778 243.816 133.228 243.816C134.658 243.816 135.97 244.051 137.164 244.52C138.359 244.989 139.372 245.683 140.204 246.6C141.058 247.517 141.719 248.637 142.188 249.96C142.658 251.283 142.892 252.797 142.892 254.504C142.892 256.211 142.658 257.747 142.188 259.112C141.719 260.456 141.058 261.597 140.204 262.536C139.372 263.453 138.359 264.157 137.164 264.648C135.97 265.139 134.658 265.384 133.228 265.384ZM133.228 260.648C134.487 260.648 135.468 260.104 136.172 259.016C136.898 257.907 137.26 256.403 137.26 254.504C137.26 252.605 136.898 251.144 136.172 250.12C135.468 249.075 134.487 248.552 133.228 248.552C131.97 248.552 130.978 249.075 130.252 250.12C129.548 251.144 129.196 252.605 129.196 254.504C129.196 256.403 129.548 257.907 130.252 259.016C130.978 260.104 131.97 260.648 133.228 260.648ZM147.117 265V244.2H154.989C156.098 244.2 157.154 244.307 158.157 244.52C159.181 244.733 160.066 245.096 160.812 245.608C161.581 246.12 162.189 246.813 162.637 247.688C163.085 248.541 163.309 249.619 163.309 250.92C163.309 252.413 162.999 253.651 162.381 254.632C161.783 255.613 160.973 256.381 159.949 256.936L164.461 265H158.317L154.733 258.024H152.621V265H147.117ZM152.621 253.672H154.605C156.823 253.672 157.933 252.755 157.933 250.92C157.933 250.024 157.645 249.405 157.069 249.064C156.514 248.723 155.693 248.552 154.605 248.552H152.621V253.672ZM167.773 265V244.2H173.277V265H167.773ZM183.774 254.888L183.422 256.328H187.262L186.91 254.888C186.654 253.885 186.398 252.797 186.142 251.624C185.886 250.451 185.63 249.341 185.374 248.296H185.246C185.011 249.363 184.766 250.483 184.51 251.656C184.275 252.808 184.03 253.885 183.774 254.888ZM175.774 265L182.11 244.2H188.766L195.102 265H189.278L188.254 260.584H182.43L181.406 265H175.774ZM197.585 265V244.2H203.089V260.392H210.961V265H197.585Z" opacity="0.7"></path>
<g filter="url(#filter0_d_19584_163746)">
<path fill="white" d="M68.32 343V304H82.36C84.4 304 86.32 304.16 88.12 304.48C89.92 304.76 91.48 305.26 92.8 305.98C94.12 306.7 95.16 307.7 95.92 308.98C96.72 310.22 97.12 311.8 97.12 313.72C97.12 314.56 97 315.42 96.76 316.3C96.52 317.14 96.18 317.96 95.74 318.76C95.34 319.52 94.84 320.2 94.24 320.8C93.64 321.4 92.96 321.84 92.2 322.12V322.36C94.08 322.92 95.66 323.94 96.94 325.42C98.26 326.86 98.92 328.88 98.92 331.48C98.92 333.48 98.5 335.22 97.66 336.7C96.86 338.14 95.76 339.34 94.36 340.3C93 341.22 91.38 341.9 89.5 342.34C87.62 342.78 85.64 343 83.56 343H68.32ZM78.64 319.24H82.12C83.8 319.24 85.04 318.88 85.84 318.16C86.64 317.44 87.04 316.48 87.04 315.28C87.04 314.08 86.64 313.22 85.84 312.7C85.04 312.18 83.8 311.92 82.12 311.92H78.64V319.24ZM78.64 335.08H82.84C86.84 335.08 88.84 333.64 88.84 330.76C88.84 329.32 88.34 328.3 87.34 327.7C86.38 327.1 84.88 326.8 82.84 326.8H78.64V335.08ZM113.338 343.72C111.698 343.72 110.278 343.44 109.078 342.88C107.918 342.28 106.958 341.46 106.198 340.42C105.438 339.34 104.878 338.06 104.518 336.58C104.158 335.06 103.978 333.36 103.978 331.48V313H114.298V330.16C114.298 332.08 114.538 333.36 115.018 334C115.498 334.64 116.258 334.96 117.298 334.96C118.258 334.96 119.038 334.76 119.638 334.36C120.278 333.96 120.938 333.28 121.618 332.32V313H131.938V343H123.538L122.818 339.04H122.578C121.378 340.48 120.038 341.62 118.558 342.46C117.118 343.3 115.378 343.72 113.338 343.72ZM138.906 343V313H149.226V343H138.906ZM144.066 309.28C142.386 309.28 141.006 308.8 139.926 307.84C138.846 306.88 138.306 305.64 138.306 304.12C138.306 302.6 138.846 301.36 139.926 300.4C141.006 299.44 142.386 298.96 144.066 298.96C145.746 298.96 147.126 299.44 148.206 300.4C149.286 301.36 149.826 302.6 149.826 304.12C149.826 305.64 149.286 306.88 148.206 307.84C147.126 308.8 145.746 309.28 144.066 309.28ZM165.431 343.72C163.671 343.72 162.191 343.46 160.991 342.94C159.831 342.38 158.891 341.6 158.171 340.6C157.451 339.6 156.931 338.42 156.611 337.06C156.331 335.66 156.191 334.12 156.191 332.44V301.24H166.511V332.8C166.511 333.84 166.691 334.54 167.051 334.9C167.451 335.26 167.831 335.44 168.191 335.44C168.391 335.44 168.551 335.44 168.671 335.44C168.831 335.44 169.031 335.4 169.271 335.32L170.471 342.88C169.911 343.12 169.211 343.32 168.371 343.48C167.571 343.64 166.591 343.72 165.431 343.72ZM184.982 343.72C183.102 343.72 181.402 343.36 179.882 342.64C178.402 341.92 177.122 340.88 176.042 339.52C175.002 338.16 174.182 336.52 173.582 334.6C173.022 332.64 172.742 330.44 172.742 328C172.742 325.56 173.082 323.36 173.762 321.4C174.482 319.44 175.402 317.8 176.522 316.48C177.682 315.12 179.002 314.08 180.482 313.36C181.962 312.64 183.462 312.28 184.982 312.28C186.622 312.28 187.962 312.56 189.002 313.12C190.042 313.64 191.022 314.36 191.942 315.28L191.582 310.96V301.24H201.902V343H193.502L192.782 340.24H192.542C191.502 341.28 190.302 342.12 188.942 342.76C187.622 343.4 186.302 343.72 184.982 343.72ZM187.742 335.32C188.542 335.32 189.242 335.18 189.842 334.9C190.442 334.58 191.022 334 191.582 333.16V322.12C190.982 321.56 190.322 321.18 189.602 320.98C188.882 320.78 188.182 320.68 187.502 320.68C186.422 320.68 185.442 321.22 184.562 322.3C183.722 323.38 183.302 325.24 183.302 327.88C183.302 330.6 183.682 332.52 184.442 333.64C185.242 334.76 186.342 335.32 187.742 335.32ZM228.678 343.72C227.278 343.72 226.018 343.48 224.898 343C223.778 342.48 222.818 341.8 222.018 340.96C221.258 340.12 220.678 339.14 220.278 338.02C219.878 336.9 219.678 335.72 219.678 334.48C219.678 331.36 220.958 328.92 223.518 327.16C226.078 325.36 230.238 324.16 235.998 323.56C235.758 321.48 234.358 320.44 231.798 320.44C230.718 320.44 229.578 320.66 228.378 321.1C227.178 321.5 225.798 322.12 224.238 322.96L220.638 316.24C222.758 314.96 224.898 313.98 227.058 313.3C229.218 312.62 231.478 312.28 233.838 312.28C237.718 312.28 240.758 313.4 242.958 315.64C245.198 317.84 246.318 321.4 246.318 326.32V343H237.918L237.198 340.12H236.958C235.758 341.2 234.478 342.08 233.118 342.76C231.798 343.4 230.318 343.72 228.678 343.72ZM232.278 335.8C233.118 335.8 233.798 335.62 234.318 335.26C234.878 334.86 235.438 334.36 235.998 333.76V329.68C233.518 330.04 231.818 330.58 230.898 331.3C229.978 332.02 229.518 332.8 229.518 333.64C229.518 335.08 230.438 335.8 232.278 335.8ZM273.338 343V312.64H263.018V304H293.978V312.64H283.658V343H273.338ZM307.441 343.72C305.521 343.72 303.661 343.38 301.861 342.7C300.061 341.98 298.461 340.96 297.061 339.64C295.701 338.28 294.601 336.62 293.761 334.66C292.961 332.7 292.561 330.48 292.561 328C292.561 325.52 292.961 323.3 293.761 321.34C294.601 319.38 295.701 317.74 297.061 316.42C298.461 315.06 300.061 314.04 301.861 313.36C303.661 312.64 305.521 312.28 307.441 312.28C309.361 312.28 311.201 312.64 312.961 313.36C314.761 314.04 316.341 315.06 317.701 316.42C319.101 317.74 320.221 319.38 321.061 321.34C321.901 323.3 322.321 325.52 322.321 328C322.321 330.48 321.901 332.7 321.061 334.66C320.221 336.62 319.101 338.28 317.701 339.64C316.341 340.96 314.761 341.98 312.961 342.7C311.201 343.38 309.361 343.72 307.441 343.72ZM307.441 335.44C309.001 335.44 310.101 334.78 310.741 333.46C311.421 332.1 311.761 330.28 311.761 328C311.761 325.72 311.421 323.92 310.741 322.6C310.101 321.24 309.001 320.56 307.441 320.56C305.881 320.56 304.761 321.24 304.081 322.6C303.441 323.92 303.121 325.72 303.121 328C303.121 330.28 303.441 332.1 304.081 333.46C304.761 334.78 305.881 335.44 307.441 335.44ZM338.615 343.72C336.735 343.72 335.035 343.36 333.515 342.64C332.035 341.92 330.755 340.88 329.675 339.52C328.635 338.16 327.815 336.52 327.215 334.6C326.655 332.64 326.375 330.44 326.375 328C326.375 325.56 326.715 323.36 327.395 321.4C328.115 319.44 329.035 317.8 330.155 316.48C331.315 315.12 332.635 314.08 334.115 313.36C335.595 312.64 337.095 312.28 338.615 312.28C340.255 312.28 341.595 312.56 342.635 313.12C343.675 313.64 344.655 314.36 345.575 315.28L345.215 310.96V301.24H355.535V343H347.135L346.415 340.24H346.175C345.135 341.28 343.935 342.12 342.575 342.76C341.255 343.4 339.935 343.72 338.615 343.72ZM341.375 335.32C342.175 335.32 342.875 335.18 343.475 334.9C344.075 334.58 344.655 334 345.215 333.16V322.12C344.615 321.56 343.955 321.18 343.235 320.98C342.515 320.78 341.815 320.68 341.135 320.68C340.055 320.68 339.075 321.22 338.195 322.3C337.355 323.38 336.935 325.24 336.935 327.88C336.935 330.6 337.315 332.52 338.075 333.64C338.875 334.76 339.975 335.32 341.375 335.32ZM375.82 343.72C373.9 343.72 372.04 343.38 370.24 342.7C368.44 341.98 366.84 340.96 365.44 339.64C364.08 338.28 362.98 336.62 362.14 334.66C361.34 332.7 360.94 330.48 360.94 328C360.94 325.52 361.34 323.3 362.14 321.34C362.98 319.38 364.08 317.74 365.44 316.42C366.84 315.06 368.44 314.04 370.24 313.36C372.04 312.64 373.9 312.28 375.82 312.28C377.74 312.28 379.58 312.64 381.34 313.36C383.14 314.04 384.72 315.06 386.08 316.42C387.48 317.74 388.6 319.38 389.44 321.34C390.28 323.3 390.7 325.52 390.7 328C390.7 330.48 390.28 332.7 389.44 334.66C388.6 336.62 387.48 338.28 386.08 339.64C384.72 340.96 383.14 341.98 381.34 342.7C379.58 343.38 377.74 343.72 375.82 343.72ZM375.82 335.44C377.38 335.44 378.48 334.78 379.12 333.46C379.8 332.1 380.14 330.28 380.14 328C380.14 325.72 379.8 323.92 379.12 322.6C378.48 321.24 377.38 320.56 375.82 320.56C374.26 320.56 373.14 321.24 372.46 322.6C371.82 323.92 371.5 325.72 371.5 328C371.5 330.28 371.82 332.1 372.46 333.46C373.14 334.78 374.26 335.44 375.82 335.44ZM415.885 343.72C414.485 343.72 413.225 343.48 412.105 343C410.985 342.48 410.025 341.8 409.225 340.96C408.465 340.12 407.885 339.14 407.485 338.02C407.085 336.9 406.885 335.72 406.885 334.48C406.885 331.36 408.165 328.92 410.725 327.16C413.285 325.36 417.445 324.16 423.205 323.56C422.965 321.48 421.565 320.44 419.005 320.44C417.925 320.44 416.785 320.66 415.585 321.1C414.385 321.5 413.005 322.12 411.445 322.96L407.845 316.24C409.965 314.96 412.105 313.98 414.265 313.3C416.425 312.62 418.685 312.28 421.045 312.28C424.925 312.28 427.965 313.4 430.165 315.64C432.405 317.84 433.525 321.4 433.525 326.32V343H425.125L424.405 340.12H424.165C422.965 341.2 421.685 342.08 420.325 342.76C419.005 343.4 417.525 343.72 415.885 343.72ZM419.485 335.8C420.325 335.8 421.005 335.62 421.525 335.26C422.085 334.86 422.645 334.36 423.205 333.76V329.68C420.725 330.04 419.025 330.58 418.105 331.3C417.185 332.02 416.725 332.8 416.725 333.64C416.725 335.08 417.645 335.8 419.485 335.8ZM440.253 353.56V313H448.653L449.373 315.76H449.613C450.733 314.72 451.993 313.88 453.393 313.24C454.793 312.6 456.253 312.28 457.773 312.28C459.533 312.28 461.133 312.64 462.573 313.36C464.013 314.08 465.233 315.1 466.233 316.42C467.273 317.74 468.053 319.34 468.573 321.22C469.133 323.1 469.413 325.2 469.413 327.52C469.413 330.12 469.053 332.42 468.333 334.42C467.653 336.42 466.733 338.12 465.573 339.52C464.413 340.88 463.073 341.92 461.553 342.64C460.073 343.36 458.533 343.72 456.933 343.72C454.453 343.72 452.213 342.72 450.213 340.72L450.573 345.28V353.56H440.253ZM454.413 335.32C455.613 335.32 456.653 334.76 457.533 333.64C458.413 332.52 458.853 330.52 458.853 327.64C458.853 325.16 458.493 323.38 457.773 322.3C457.093 321.22 456.053 320.68 454.653 320.68C453.853 320.68 453.133 320.84 452.493 321.16C451.893 321.48 451.253 322.04 450.573 322.84V333.88C451.173 334.44 451.793 334.82 452.433 335.02C453.073 335.22 453.733 335.32 454.413 335.32ZM475.058 353.56V313H483.458L484.178 315.76H484.418C485.538 314.72 486.798 313.88 488.198 313.24C489.598 312.6 491.058 312.28 492.578 312.28C494.338 312.28 495.938 312.64 497.378 313.36C498.818 314.08 500.038 315.1 501.038 316.42C502.078 317.74 502.858 319.34 503.378 321.22C503.938 323.1 504.218 325.2 504.218 327.52C504.218 330.12 503.858 332.42 503.138 334.42C502.458 336.42 501.538 338.12 500.378 339.52C499.218 340.88 497.878 341.92 496.358 342.64C494.878 343.36 493.338 343.72 491.738 343.72C489.258 343.72 487.018 342.72 485.018 340.72L485.378 345.28V353.56H475.058ZM489.218 335.32C490.418 335.32 491.458 334.76 492.338 333.64C493.218 332.52 493.658 330.52 493.658 327.64C493.658 325.16 493.298 323.38 492.578 322.3C491.898 321.22 490.858 320.68 489.458 320.68C488.658 320.68 487.938 320.84 487.298 321.16C486.698 321.48 486.058 322.04 485.378 322.84V333.88C485.978 334.44 486.598 334.82 487.238 335.02C487.878 335.22 488.538 335.32 489.218 335.32ZM527.035 343L519.835 313H530.035L532.315 325.6C532.555 327.12 532.755 328.64 532.915 330.16C533.075 331.64 533.275 333.16 533.515 334.72H533.755C533.995 333.16 534.235 331.62 534.475 330.1C534.755 328.54 535.075 327.04 535.435 325.6L538.195 313H546.955L549.835 325.6C550.195 327.12 550.495 328.64 550.735 330.16C551.015 331.64 551.315 333.16 551.635 334.72H551.875C552.115 333.16 552.315 331.64 552.475 330.16C552.635 328.64 552.835 327.12 553.075 325.6L555.355 313H564.835L557.995 343H545.995L543.835 332.56C543.595 331.16 543.355 329.76 543.115 328.36C542.875 326.96 542.635 325.42 542.395 323.74H542.155C541.915 325.42 541.695 326.96 541.495 328.36C541.295 329.76 541.075 331.16 540.835 332.56L538.795 343H527.035ZM569.746 343V313H580.066V343H569.746ZM574.906 309.28C573.226 309.28 571.846 308.8 570.766 307.84C569.686 306.88 569.146 305.64 569.146 304.12C569.146 302.6 569.686 301.36 570.766 300.4C571.846 299.44 573.226 298.96 574.906 298.96C576.586 298.96 577.966 299.44 579.046 300.4C580.126 301.36 580.666 302.6 580.666 304.12C580.666 305.64 580.126 306.88 579.046 307.84C577.966 308.8 576.586 309.28 574.906 309.28ZM599.391 343.72C597.431 343.72 595.751 343.44 594.351 342.88C592.991 342.28 591.851 341.44 590.931 340.36C590.051 339.28 589.391 338 588.951 336.52C588.551 335 588.351 333.32 588.351 331.48V321.04H584.391V313.36L588.951 313L590.151 305.2H598.671V313H605.511V321.04H598.671V331.3C598.671 332.98 599.031 334.14 599.751 334.78C600.471 335.38 601.311 335.68 602.271 335.68C602.751 335.68 603.211 335.64 603.651 335.56C604.131 335.44 604.551 335.32 604.911 335.2L606.471 342.64C605.671 342.88 604.711 343.12 603.591 343.36C602.471 343.6 601.071 343.72 599.391 343.72ZM611.054 343V301.24H621.374V310.96L620.894 316.12C621.934 315.2 623.174 314.34 624.614 313.54C626.094 312.7 627.854 312.28 629.894 312.28C633.174 312.28 635.554 313.4 637.034 315.64C638.514 317.84 639.254 320.8 639.254 324.52V343H628.934V325.84C628.934 323.92 628.694 322.64 628.214 322C627.734 321.36 626.974 321.04 625.934 321.04C624.974 321.04 624.174 321.24 623.534 321.64C622.894 322.04 622.174 322.6 621.374 323.32V343H611.054ZM68.32 415V376H78.88L87.52 393.4L91.24 402.16H91.48C91.36 401.12 91.22 399.98 91.06 398.74C90.9 397.5 90.76 396.24 90.64 394.96C90.52 393.64 90.4 392.34 90.28 391.06C90.2 389.74 90.16 388.48 90.16 387.28V376H100V415H89.44L80.8 397.54L77.08 388.84H76.84C77.08 391.08 77.36 393.52 77.68 396.16C78 398.8 78.16 401.32 78.16 403.72V415H68.32ZM121.713 415.72C119.513 415.72 117.473 415.38 115.593 414.7C113.713 413.98 112.073 412.96 110.673 411.64C109.313 410.28 108.233 408.62 107.433 406.66C106.633 404.7 106.233 402.48 106.233 400C106.233 397.56 106.633 395.38 107.433 393.46C108.273 391.5 109.353 389.84 110.673 388.48C112.033 387.12 113.573 386.08 115.293 385.36C117.013 384.64 118.793 384.28 120.633 384.28C122.833 384.28 124.753 384.66 126.393 385.42C128.033 386.18 129.393 387.22 130.473 388.54C131.553 389.86 132.353 391.4 132.873 393.16C133.433 394.92 133.713 396.8 133.713 398.8C133.713 399.72 133.653 400.58 133.533 401.38C133.453 402.18 133.373 402.76 133.293 403.12H116.193C116.673 404.92 117.533 406.18 118.773 406.9C120.013 407.58 121.473 407.92 123.153 407.92C124.193 407.92 125.193 407.78 126.153 407.5C127.153 407.18 128.193 406.72 129.273 406.12L132.633 412.24C130.993 413.4 129.173 414.28 127.173 414.88C125.213 415.44 123.393 415.72 121.713 415.72ZM116.073 396.4H124.953C124.953 395.24 124.653 394.24 124.053 393.4C123.493 392.52 122.433 392.08 120.873 392.08C119.713 392.08 118.693 392.42 117.813 393.1C116.973 393.78 116.393 394.88 116.073 396.4ZM135.563 415L144.563 399.4L136.043 385H147.083L149.243 389.2C149.643 390.04 150.043 390.9 150.443 391.78C150.843 392.66 151.243 393.52 151.643 394.36H151.883C152.163 393.52 152.463 392.66 152.783 391.78C153.103 390.9 153.403 390.04 153.683 389.2L155.123 385H165.803L157.283 400.6L166.283 415H155.243L152.843 410.8C152.403 409.96 151.963 409.1 151.523 408.22C151.083 407.34 150.643 406.48 150.203 405.64H149.963C149.643 406.48 149.303 407.34 148.943 408.22C148.583 409.06 148.243 409.92 147.923 410.8L146.243 415H135.563ZM181.149 415.72C179.189 415.72 177.509 415.44 176.109 414.88C174.749 414.28 173.609 413.44 172.689 412.36C171.809 411.28 171.149 410 170.709 408.52C170.309 407 170.109 405.32 170.109 403.48V393.04H166.149V385.36L170.709 385L171.909 377.2H180.429V385H187.269V393.04H180.429V403.3C180.429 404.98 180.789 406.14 181.509 406.78C182.229 407.38 183.069 407.68 184.029 407.68C184.509 407.68 184.969 407.64 185.409 407.56C185.889 407.44 186.309 407.32 186.669 407.2L188.229 414.64C187.429 414.88 186.469 415.12 185.349 415.36C184.229 415.6 182.829 415.72 181.149 415.72ZM197.76 415.72C196 415.72 194.56 415.12 193.44 413.92C192.32 412.72 191.76 411.24 191.76 409.48C191.76 407.72 192.32 406.24 193.44 405.04C194.56 403.84 196 403.24 197.76 403.24C199.52 403.24 200.96 403.84 202.08 405.04C203.2 406.24 203.76 407.72 203.76 409.48C203.76 411.24 203.2 412.72 202.08 413.92C200.96 415.12 199.52 415.72 197.76 415.72ZM212.061 426.28C210.661 426.28 209.541 426.2 208.701 426.04C207.861 425.88 207.101 425.68 206.421 425.44L208.221 417.88C208.661 418 209.041 418.08 209.361 418.12C209.681 418.2 210.021 418.24 210.381 418.24C211.461 418.24 212.221 417.9 212.661 417.22C213.141 416.58 213.381 415.44 213.381 413.8V385H223.701V413.44C223.701 415.12 223.521 416.72 223.161 418.24C222.801 419.8 222.161 421.18 221.241 422.38C220.361 423.58 219.161 424.52 217.641 425.2C216.161 425.92 214.301 426.28 212.061 426.28ZM218.541 381.28C216.861 381.28 215.481 380.8 214.401 379.84C213.321 378.88 212.781 377.64 212.781 376.12C212.781 374.6 213.321 373.36 214.401 372.4C215.481 371.44 216.861 370.96 218.541 370.96C220.221 370.96 221.601 371.44 222.681 372.4C223.761 373.36 224.301 374.6 224.301 376.12C224.301 377.64 223.761 378.88 222.681 379.84C221.601 380.8 220.221 381.28 218.541 381.28ZM239.904 415.72C237.984 415.72 235.944 415.34 233.784 414.58C231.664 413.82 229.824 412.8 228.264 411.52L232.824 405.16C235.544 407.16 237.984 408.16 240.144 408.16C241.224 408.16 241.984 408.02 242.424 407.74C242.904 407.42 243.144 406.96 243.144 406.36C243.144 405.96 242.984 405.62 242.664 405.34C242.344 405.02 241.904 404.74 241.344 404.5C240.824 404.22 240.224 403.96 239.544 403.72C238.864 403.48 238.144 403.2 237.384 402.88C236.504 402.52 235.604 402.1 234.684 401.62C233.804 401.1 233.004 400.48 232.284 399.76C231.564 399.04 230.964 398.22 230.484 397.3C230.044 396.34 229.824 395.24 229.824 394C229.824 392.52 230.104 391.18 230.664 389.98C231.264 388.78 232.084 387.76 233.124 386.92C234.164 386.08 235.404 385.44 236.844 385C238.324 384.52 239.944 384.28 241.704 384.28C244.184 384.28 246.304 384.7 248.064 385.54C249.864 386.34 251.424 387.24 252.744 388.24L248.184 394.36C247.104 393.56 246.044 392.94 245.004 392.5C243.964 392.06 242.984 391.84 242.064 391.84C240.304 391.84 239.424 392.4 239.424 393.52C239.424 393.92 239.564 394.26 239.844 394.54C240.164 394.82 240.584 395.08 241.104 395.32C241.624 395.56 242.224 395.8 242.904 396.04C243.584 396.24 244.304 396.48 245.064 396.76C245.944 397.08 246.844 397.48 247.764 397.96C248.684 398.44 249.504 399.04 250.224 399.76C250.984 400.44 251.584 401.28 252.024 402.28C252.504 403.24 252.744 404.4 252.744 405.76C252.744 407.16 252.464 408.48 251.904 409.72C251.344 410.92 250.524 411.98 249.444 412.9C248.364 413.78 247.024 414.48 245.424 415C243.824 415.48 241.984 415.72 239.904 415.72ZM259.113 427.24L257.073 421.84C259.513 421.04 261.333 419.98 262.533 418.66C263.773 417.34 264.373 415.96 264.333 414.52H263.913C262.353 414.52 260.953 414.04 259.713 413.08C258.513 412.08 257.913 410.68 257.913 408.88C257.913 407.2 258.513 405.84 259.713 404.8C260.913 403.76 262.393 403.24 264.153 403.24C266.393 403.24 268.093 404.06 269.253 405.7C270.413 407.34 270.993 409.64 270.993 412.6C270.993 416.16 269.993 419.22 267.993 421.78C265.993 424.34 263.033 426.16 259.113 427.24ZM302.223 415.72C299.743 415.72 297.183 415.28 294.543 414.4C291.943 413.48 289.583 412.06 287.463 410.14L293.343 403.06C294.743 404.18 296.243 405.1 297.843 405.82C299.483 406.5 301.023 406.84 302.463 406.84C304.023 406.84 305.143 406.6 305.823 406.12C306.543 405.64 306.903 404.96 306.903 404.08C306.903 403.6 306.783 403.2 306.543 402.88C306.303 402.56 305.943 402.26 305.463 401.98C305.023 401.7 304.483 401.44 303.843 401.2C303.203 400.92 302.463 400.62 301.623 400.3L296.763 398.26C295.723 397.86 294.723 397.34 293.763 396.7C292.803 396.02 291.963 395.24 291.243 394.36C290.523 393.44 289.943 392.4 289.503 391.24C289.103 390.08 288.903 388.8 288.903 387.4C288.903 385.72 289.263 384.16 289.983 382.72C290.703 381.24 291.703 379.96 292.983 378.88C294.263 377.76 295.783 376.88 297.543 376.24C299.343 375.6 301.303 375.28 303.423 375.28C305.663 375.28 307.923 375.7 310.203 376.54C312.523 377.38 314.583 378.7 316.383 380.5L311.223 386.98C309.903 386.06 308.623 385.36 307.383 384.88C306.183 384.4 304.863 384.16 303.423 384.16C302.143 384.16 301.143 384.38 300.423 384.82C299.703 385.26 299.343 385.92 299.343 386.8C299.343 387.72 299.843 388.44 300.843 388.96C301.883 389.44 303.303 390.02 305.103 390.7L309.843 392.56C312.283 393.52 314.163 394.86 315.483 396.58C316.803 398.3 317.463 400.52 317.463 403.24C317.463 404.88 317.123 406.46 316.443 407.98C315.763 409.5 314.763 410.84 313.443 412C312.163 413.12 310.583 414.02 308.703 414.7C306.823 415.38 304.663 415.72 302.223 415.72ZM332.01 415.72C330.37 415.72 328.95 415.44 327.75 414.88C326.59 414.28 325.63 413.46 324.87 412.42C324.11 411.34 323.55 410.06 323.19 408.58C322.83 407.06 322.65 405.36 322.65 403.48V385H332.97V402.16C332.97 404.08 333.21 405.36 333.69 406C334.17 406.64 334.93 406.96 335.97 406.96C336.93 406.96 337.71 406.76 338.31 406.36C338.95 405.96 339.61 405.28 340.29 404.32V385H350.61V415H342.21L341.49 411.04H341.25C340.05 412.48 338.71 413.62 337.23 414.46C335.79 415.3 334.05 415.72 332.01 415.72ZM357.578 425.56V385H365.978L366.698 387.76H366.938C368.058 386.72 369.318 385.88 370.718 385.24C372.118 384.6 373.578 384.28 375.098 384.28C376.858 384.28 378.458 384.64 379.898 385.36C381.338 386.08 382.558 387.1 383.558 388.42C384.598 389.74 385.378 391.34 385.898 393.22C386.458 395.1 386.738 397.2 386.738 399.52C386.738 402.12 386.378 404.42 385.658 406.42C384.978 408.42 384.058 410.12 382.898 411.52C381.738 412.88 380.398 413.92 378.878 414.64C377.398 415.36 375.858 415.72 374.258 415.72C371.778 415.72 369.538 414.72 367.538 412.72L367.898 417.28V425.56H357.578ZM371.738 407.32C372.938 407.32 373.978 406.76 374.858 405.64C375.738 404.52 376.178 402.52 376.178 399.64C376.178 397.16 375.818 395.38 375.098 394.3C374.418 393.22 373.378 392.68 371.978 392.68C371.178 392.68 370.458 392.84 369.818 393.16C369.218 393.48 368.578 394.04 367.898 394.84V405.88C368.498 406.44 369.118 406.82 369.758 407.02C370.398 407.22 371.058 407.32 371.738 407.32ZM399.596 415.72C398.196 415.72 396.936 415.48 395.816 415C394.696 414.48 393.736 413.8 392.936 412.96C392.176 412.12 391.596 411.14 391.196 410.02C390.796 408.9 390.596 407.72 390.596 406.48C390.596 403.36 391.876 400.92 394.436 399.16C396.996 397.36 401.156 396.16 406.916 395.56C406.676 393.48 405.276 392.44 402.716 392.44C401.636 392.44 400.496 392.66 399.296 393.1C398.096 393.5 396.716 394.12 395.156 394.96L391.556 388.24C393.676 386.96 395.816 385.98 397.976 385.3C400.136 384.62 402.396 384.28 404.756 384.28C408.636 384.28 411.676 385.4 413.876 387.64C416.116 389.84 417.236 393.4 417.236 398.32V415H408.836L408.116 412.12H407.876C406.676 413.2 405.396 414.08 404.036 414.76C402.716 415.4 401.236 415.72 399.596 415.72ZM403.196 407.8C404.036 407.8 404.716 407.62 405.236 407.26C405.796 406.86 406.356 406.36 406.916 405.76V401.68C404.436 402.04 402.736 402.58 401.816 403.3C400.896 404.02 400.436 404.8 400.436 405.64C400.436 407.08 401.356 407.8 403.196 407.8ZM440.644 415.72C439.324 415.72 438.024 415.4 436.744 414.76C435.464 414.08 434.244 413.08 433.084 411.76H432.844L432.004 415H423.964V373.24H434.284V382.96L434.044 387.28C435.084 386.32 436.244 385.58 437.524 385.06C438.804 384.54 440.104 384.28 441.424 384.28C443.184 384.28 444.784 384.64 446.224 385.36C447.664 386.08 448.884 387.1 449.884 388.42C450.924 389.74 451.724 391.34 452.284 393.22C452.844 395.1 453.124 397.18 453.124 399.46C453.124 402.06 452.764 404.38 452.044 406.42C451.364 408.42 450.444 410.12 449.284 411.52C448.124 412.88 446.784 413.92 445.264 414.64C443.784 415.36 442.244 415.72 440.644 415.72ZM438.124 407.32C439.324 407.32 440.364 406.76 441.244 405.64C442.124 404.52 442.564 402.52 442.564 399.64C442.564 397.16 442.204 395.38 441.484 394.3C440.804 393.22 439.764 392.68 438.364 392.68C437.564 392.68 436.844 392.84 436.204 393.16C435.604 393.48 434.964 394.04 434.284 394.84V405.88C434.884 406.44 435.504 406.82 436.144 407.02C436.784 407.22 437.444 407.32 438.124 407.32ZM465.983 415.72C464.583 415.72 463.323 415.48 462.203 415C461.083 414.48 460.123 413.8 459.323 412.96C458.563 412.12 457.983 411.14 457.583 410.02C457.183 408.9 456.983 407.72 456.983 406.48C456.983 403.36 458.263 400.92 460.823 399.16C463.383 397.36 467.543 396.16 473.303 395.56C473.063 393.48 471.663 392.44 469.103 392.44C468.023 392.44 466.883 392.66 465.683 393.1C464.483 393.5 463.103 394.12 461.543 394.96L457.943 388.24C460.063 386.96 462.203 385.98 464.363 385.3C466.523 384.62 468.783 384.28 471.143 384.28C475.023 384.28 478.063 385.4 480.263 387.64C482.503 389.84 483.623 393.4 483.623 398.32V415H475.223L474.503 412.12H474.263C473.063 413.2 471.783 414.08 470.423 414.76C469.103 415.4 467.623 415.72 465.983 415.72ZM469.583 407.8C470.423 407.8 471.103 407.62 471.623 407.26C472.183 406.86 472.743 406.36 473.303 405.76V401.68C470.823 402.04 469.123 402.58 468.203 403.3C467.283 404.02 466.823 404.8 466.823 405.64C466.823 407.08 467.743 407.8 469.583 407.8ZM499.591 415.72C497.671 415.72 495.631 415.34 493.471 414.58C491.351 413.82 489.511 412.8 487.951 411.52L492.511 405.16C495.231 407.16 497.671 408.16 499.831 408.16C500.911 408.16 501.671 408.02 502.111 407.74C502.591 407.42 502.831 406.96 502.831 406.36C502.831 405.96 502.671 405.62 502.351 405.34C502.031 405.02 501.591 404.74 501.031 404.5C500.511 404.22 499.911 403.96 499.231 403.72C498.551 403.48 497.831 403.2 497.071 402.88C496.191 402.52 495.291 402.1 494.371 401.62C493.491 401.1 492.691 400.48 491.971 399.76C491.251 399.04 490.651 398.22 490.171 397.3C489.731 396.34 489.511 395.24 489.511 394C489.511 392.52 489.791 391.18 490.351 389.98C490.951 388.78 491.771 387.76 492.811 386.92C493.851 386.08 495.091 385.44 496.531 385C498.011 384.52 499.631 384.28 501.391 384.28C503.871 384.28 505.991 384.7 507.751 385.54C509.551 386.34 511.111 387.24 512.431 388.24L507.871 394.36C506.791 393.56 505.731 392.94 504.691 392.5C503.651 392.06 502.671 391.84 501.751 391.84C499.991 391.84 499.111 392.4 499.111 393.52C499.111 393.92 499.251 394.26 499.531 394.54C499.851 394.82 500.271 395.08 500.791 395.32C501.311 395.56 501.911 395.8 502.591 396.04C503.271 396.24 503.991 396.48 504.751 396.76C505.631 397.08 506.531 397.48 507.451 397.96C508.371 398.44 509.191 399.04 509.911 399.76C510.671 400.44 511.271 401.28 511.711 402.28C512.191 403.24 512.431 404.4 512.431 405.76C512.431 407.16 512.151 408.48 511.591 409.72C511.031 410.92 510.211 411.98 509.131 412.9C508.051 413.78 506.711 414.48 505.111 415C503.511 415.48 501.671 415.72 499.591 415.72ZM531.4 415.72C529.2 415.72 527.16 415.38 525.28 414.7C523.4 413.98 521.76 412.96 520.36 411.64C519 410.28 517.92 408.62 517.12 406.66C516.32 404.7 515.92 402.48 515.92 400C515.92 397.56 516.32 395.38 517.12 393.46C517.96 391.5 519.04 389.84 520.36 388.48C521.72 387.12 523.26 386.08 524.98 385.36C526.7 384.64 528.48 384.28 530.32 384.28C532.52 384.28 534.44 384.66 536.08 385.42C537.72 386.18 539.08 387.22 540.16 388.54C541.24 389.86 542.04 391.4 542.56 393.16C543.12 394.92 543.4 396.8 543.4 398.8C543.4 399.72 543.34 400.58 543.22 401.38C543.14 402.18 543.06 402.76 542.98 403.12H525.88C526.36 404.92 527.22 406.18 528.46 406.9C529.7 407.58 531.16 407.92 532.84 407.92C533.88 407.92 534.88 407.78 535.84 407.5C536.84 407.18 537.88 406.72 538.96 406.12L542.32 412.24C540.68 413.4 538.86 414.28 536.86 414.88C534.9 415.44 533.08 415.72 531.4 415.72ZM525.76 396.4H534.64C534.64 395.24 534.34 394.24 533.74 393.4C533.18 392.52 532.12 392.08 530.56 392.08C529.4 392.08 528.38 392.42 527.5 393.1C526.66 393.78 526.08 394.88 525.76 396.4ZM568.874 415.72C567.474 415.72 566.214 415.48 565.094 415C563.974 414.48 563.014 413.8 562.214 412.96C561.454 412.12 560.874 411.14 560.474 410.02C560.074 408.9 559.874 407.72 559.874 406.48C559.874 403.36 561.154 400.92 563.714 399.16C566.274 397.36 570.434 396.16 576.194 395.56C575.954 393.48 574.554 392.44 571.994 392.44C570.914 392.44 569.774 392.66 568.574 393.1C567.374 393.5 565.994 394.12 564.434 394.96L560.834 388.24C562.954 386.96 565.094 385.98 567.254 385.3C569.414 384.62 571.674 384.28 574.034 384.28C577.914 384.28 580.954 385.4 583.154 387.64C585.394 389.84 586.514 393.4 586.514 398.32V415H578.114L577.394 412.12H577.154C575.954 413.2 574.674 414.08 573.314 414.76C571.994 415.4 570.514 415.72 568.874 415.72ZM572.474 407.8C573.314 407.8 573.994 407.62 574.514 407.26C575.074 406.86 575.634 406.36 576.194 405.76V401.68C573.714 402.04 572.014 402.58 571.094 403.3C570.174 404.02 569.714 404.8 569.714 405.64C569.714 407.08 570.634 407.8 572.474 407.8ZM593.242 415V385H601.642L602.362 388.6H602.602C603.802 387.44 605.162 386.44 606.682 385.6C608.242 384.72 610.042 384.28 612.082 384.28C615.362 384.28 617.742 385.4 619.222 387.64C620.702 389.84 621.442 392.8 621.442 396.52V415H611.122V397.84C611.122 395.92 610.882 394.64 610.402 394C609.922 393.36 609.162 393.04 608.122 393.04C607.162 393.04 606.362 393.24 605.722 393.64C605.082 394.04 604.362 394.6 603.562 395.32V415H593.242ZM639.084 415.72C637.204 415.72 635.504 415.36 633.984 414.64C632.504 413.92 631.224 412.88 630.144 411.52C629.104 410.16 628.284 408.52 627.684 406.6C627.124 404.64 626.844 402.44 626.844 400C626.844 397.56 627.184 395.36 627.864 393.4C628.584 391.44 629.504 389.8 630.624 388.48C631.784 387.12 633.104 386.08 634.584 385.36C636.064 384.64 637.564 384.28 639.084 384.28C640.724 384.28 642.064 384.56 643.104 385.12C644.144 385.64 645.124 386.36 646.044 387.28L645.684 382.96V373.24H656.004V415H647.604L646.884 412.24H646.644C645.604 413.28 644.404 414.12 643.044 414.76C641.724 415.4 640.404 415.72 639.084 415.72ZM641.844 407.32C642.644 407.32 643.344 407.18 643.944 406.9C644.544 406.58 645.124 406 645.684 405.16V394.12C645.084 393.56 644.424 393.18 643.704 392.98C642.984 392.78 642.284 392.68 641.604 392.68C640.524 392.68 639.544 393.22 638.664 394.3C637.824 395.38 637.404 397.24 637.404 399.88C637.404 402.6 637.784 404.52 638.544 405.64C639.344 406.76 640.444 407.32 641.844 407.32ZM68.32 487V448H79.36L85.24 463.96C85.6 465.04 85.94 466.16 86.26 467.32C86.58 468.48 86.92 469.64 87.28 470.8H87.52C87.88 469.64 88.22 468.48 88.54 467.32C88.86 466.16 89.2 465.04 89.56 463.96L95.2 448H106.24V487H96.88V475.48C96.88 474.48 96.92 473.38 97 472.18C97.12 470.98 97.24 469.76 97.36 468.52C97.48 467.24 97.62 466 97.78 464.8C97.94 463.6 98.08 462.52 98.2 461.56H97.96L94.72 470.92L89.92 483.82H84.4L79.6 470.92L76.48 461.56H76.24C76.36 462.52 76.5 463.6 76.66 464.8C76.82 466 76.96 467.24 77.08 468.52C77.2 469.76 77.3 470.98 77.38 472.18C77.5 473.38 77.56 474.48 77.56 475.48V487H68.32ZM123.182 487.72C121.542 487.72 120.122 487.44 118.922 486.88C117.762 486.28 116.802 485.46 116.042 484.42C115.282 483.34 114.722 482.06 114.362 480.58C114.002 479.06 113.822 477.36 113.822 475.48V457H124.142V474.16C124.142 476.08 124.382 477.36 124.862 478C125.342 478.64 126.102 478.96 127.142 478.96C128.102 478.96 128.882 478.76 129.482 478.36C130.122 477.96 130.782 477.28 131.462 476.32V457H141.782V487H133.382L132.662 483.04H132.422C131.222 484.48 129.882 485.62 128.402 486.46C126.962 487.3 125.222 487.72 123.182 487.72ZM157.99 487.72C156.23 487.72 154.75 487.46 153.55 486.94C152.39 486.38 151.45 485.6 150.73 484.6C150.01 483.6 149.49 482.42 149.17 481.06C148.89 479.66 148.75 478.12 148.75 476.44V445.24H159.07V476.8C159.07 477.84 159.25 478.54 159.61 478.9C160.01 479.26 160.39 479.44 160.75 479.44C160.95 479.44 161.11 479.44 161.23 479.44C161.39 479.44 161.59 479.4 161.83 479.32L163.03 486.88C162.47 487.12 161.77 487.32 160.93 487.48C160.13 487.64 159.15 487.72 157.99 487.72ZM178.981 487.72C177.021 487.72 175.341 487.44 173.941 486.88C172.581 486.28 171.441 485.44 170.521 484.36C169.641 483.28 168.981 482 168.541 480.52C168.141 479 167.941 477.32 167.941 475.48V465.04H163.981V457.36L168.541 457L169.741 449.2H178.261V457H185.101V465.04H178.261V475.3C178.261 476.98 178.621 478.14 179.341 478.78C180.061 479.38 180.901 479.68 181.861 479.68C182.341 479.68 182.801 479.64 183.241 479.56C183.721 479.44 184.141 479.32 184.501 479.2L186.061 486.64C185.261 486.88 184.301 487.12 183.181 487.36C182.061 487.6 180.661 487.72 178.981 487.72ZM190.644 487V457H200.964V487H190.644ZM195.804 453.28C194.124 453.28 192.744 452.8 191.664 451.84C190.584 450.88 190.044 449.64 190.044 448.12C190.044 446.6 190.584 445.36 191.664 444.4C192.744 443.44 194.124 442.96 195.804 442.96C197.484 442.96 198.864 443.44 199.944 444.4C201.024 445.36 201.564 446.6 201.564 448.12C201.564 449.64 201.024 450.88 199.944 451.84C198.864 452.8 197.484 453.28 195.804 453.28ZM209.729 487V465.04H205.769V457.36L209.729 457.06V456.64C209.729 455.04 209.929 453.52 210.329 452.08C210.729 450.6 211.389 449.3 212.309 448.18C213.269 447.06 214.489 446.18 215.969 445.54C217.489 444.86 219.369 444.52 221.609 444.52C223.009 444.52 224.249 444.64 225.329 444.88C226.409 445.12 227.289 445.36 227.969 445.6L226.169 453.16C225.689 452.96 225.189 452.82 224.669 452.74C224.149 452.62 223.649 452.56 223.169 452.56C222.209 452.56 221.449 452.84 220.889 453.4C220.329 453.92 220.049 454.88 220.049 456.28V457H225.089V465.04H220.049V487H209.729ZM236.178 487.72C234.778 487.72 233.518 487.48 232.398 487C231.278 486.48 230.318 485.8 229.518 484.96C228.758 484.12 228.178 483.14 227.778 482.02C227.378 480.9 227.178 479.72 227.178 478.48C227.178 475.36 228.458 472.92 231.018 471.16C233.578 469.36 237.738 468.16 243.498 467.56C243.258 465.48 241.858 464.44 239.298 464.44C238.218 464.44 237.078 464.66 235.878 465.1C234.678 465.5 233.298 466.12 231.738 466.96L228.138 460.24C230.258 458.96 232.398 457.98 234.558 457.3C236.718 456.62 238.978 456.28 241.338 456.28C245.218 456.28 248.258 457.4 250.458 459.64C252.698 461.84 253.818 465.4 253.818 470.32V487H245.418L244.698 484.12H244.458C243.258 485.2 241.978 486.08 240.618 486.76C239.298 487.4 237.818 487.72 236.178 487.72ZM239.778 479.8C240.618 479.8 241.298 479.62 241.818 479.26C242.378 478.86 242.938 478.36 243.498 477.76V473.68C241.018 474.04 239.318 474.58 238.398 475.3C237.478 476.02 237.018 476.8 237.018 477.64C237.018 479.08 237.938 479.8 239.778 479.8ZM274.106 487.72C271.986 487.72 270.006 487.38 268.166 486.7C266.326 485.98 264.726 484.96 263.366 483.64C262.006 482.28 260.926 480.62 260.126 478.66C259.366 476.7 258.986 474.48 258.986 472C258.986 469.52 259.426 467.3 260.306 465.34C261.186 463.38 262.366 461.74 263.846 460.42C265.326 459.06 267.026 458.04 268.946 457.36C270.906 456.64 272.946 456.28 275.066 456.28C276.866 456.28 278.486 456.56 279.926 457.12C281.366 457.68 282.666 458.44 283.826 459.4L279.026 466C278.346 465.44 277.746 465.06 277.226 464.86C276.746 464.66 276.226 464.56 275.666 464.56C273.746 464.56 272.246 465.24 271.166 466.6C270.086 467.92 269.546 469.72 269.546 472C269.546 474.28 270.086 476.1 271.166 477.46C272.286 478.78 273.666 479.44 275.306 479.44C276.146 479.44 276.966 479.26 277.766 478.9C278.606 478.54 279.386 478.08 280.106 477.52L284.066 484.24C282.546 485.56 280.886 486.48 279.086 487C277.326 487.48 275.666 487.72 274.106 487.72ZM300.621 487.72C298.661 487.72 296.981 487.44 295.581 486.88C294.221 486.28 293.081 485.44 292.161 484.36C291.281 483.28 290.621 482 290.181 480.52C289.781 479 289.581 477.32 289.581 475.48V465.04H285.621V457.36L290.181 457L291.381 449.2H299.901V457H306.741V465.04H299.901V475.3C299.901 476.98 300.261 478.14 300.981 478.78C301.701 479.38 302.541 479.68 303.501 479.68C303.981 479.68 304.441 479.64 304.881 479.56C305.361 479.44 305.781 479.32 306.141 479.2L307.701 486.64C306.901 486.88 305.941 487.12 304.821 487.36C303.701 487.6 302.301 487.72 300.621 487.72ZM324.433 487.72C322.513 487.72 320.653 487.38 318.853 486.7C317.053 485.98 315.453 484.96 314.053 483.64C312.693 482.28 311.593 480.62 310.753 478.66C309.953 476.7 309.553 474.48 309.553 472C309.553 469.52 309.953 467.3 310.753 465.34C311.593 463.38 312.693 461.74 314.053 460.42C315.453 459.06 317.053 458.04 318.853 457.36C320.653 456.64 322.513 456.28 324.433 456.28C326.353 456.28 328.193 456.64 329.953 457.36C331.753 458.04 333.333 459.06 334.693 460.42C336.093 461.74 337.213 463.38 338.053 465.34C338.893 467.3 339.313 469.52 339.313 472C339.313 474.48 338.893 476.7 338.053 478.66C337.213 480.62 336.093 482.28 334.693 483.64C333.333 484.96 331.753 485.98 329.953 486.7C328.193 487.38 326.353 487.72 324.433 487.72ZM324.433 479.44C325.993 479.44 327.093 478.78 327.733 477.46C328.413 476.1 328.753 474.28 328.753 472C328.753 469.72 328.413 467.92 327.733 466.6C327.093 465.24 325.993 464.56 324.433 464.56C322.873 464.56 321.753 465.24 321.073 466.6C320.433 467.92 320.113 469.72 320.113 472C320.113 474.28 320.433 476.1 321.073 477.46C321.753 478.78 322.873 479.44 324.433 479.44ZM344.687 487V457H353.087L353.807 462.16H354.047C355.167 460.12 356.487 458.64 358.007 457.72C359.567 456.76 361.087 456.28 362.567 456.28C363.487 456.28 364.227 456.34 364.787 456.46C365.347 456.54 365.847 456.68 366.287 456.88L364.607 465.76C364.047 465.64 363.507 465.54 362.987 465.46C362.507 465.34 361.927 465.28 361.247 465.28C360.167 465.28 359.027 465.66 357.827 466.42C356.667 467.14 355.727 468.44 355.007 470.32V487H344.687ZM389.577 487.72C388.177 487.72 386.917 487.48 385.797 487C384.677 486.48 383.717 485.8 382.917 484.96C382.157 484.12 381.577 483.14 381.177 482.02C380.777 480.9 380.577 479.72 380.577 478.48C380.577 475.36 381.857 472.92 384.417 471.16C386.977 469.36 391.137 468.16 396.897 467.56C396.657 465.48 395.257 464.44 392.697 464.44C391.617 464.44 390.477 464.66 389.277 465.1C388.077 465.5 386.697 466.12 385.137 466.96L381.537 460.24C383.657 458.96 385.797 457.98 387.957 457.3C390.117 456.62 392.377 456.28 394.737 456.28C398.617 456.28 401.657 457.4 403.857 459.64C406.097 461.84 407.217 465.4 407.217 470.32V487H398.817L398.097 484.12H397.857C396.657 485.2 395.377 486.08 394.017 486.76C392.697 487.4 391.217 487.72 389.577 487.72ZM393.177 479.8C394.017 479.8 394.697 479.62 395.217 479.26C395.777 478.86 396.337 478.36 396.897 477.76V473.68C394.417 474.04 392.717 474.58 391.797 475.3C390.877 476.02 390.417 476.8 390.417 477.64C390.417 479.08 391.337 479.8 393.177 479.8ZM423.065 487.72C421.425 487.72 420.005 487.44 418.805 486.88C417.645 486.28 416.685 485.46 415.925 484.42C415.165 483.34 414.605 482.06 414.245 480.58C413.885 479.06 413.705 477.36 413.705 475.48V457H424.025V474.16C424.025 476.08 424.265 477.36 424.745 478C425.225 478.64 425.985 478.96 427.025 478.96C427.985 478.96 428.765 478.76 429.365 478.36C430.005 477.96 430.665 477.28 431.345 476.32V457H441.665V487H433.265L432.545 483.04H432.305C431.105 484.48 429.765 485.62 428.285 486.46C426.845 487.3 425.105 487.72 423.065 487.72ZM460.992 487.72C459.032 487.72 457.352 487.44 455.952 486.88C454.592 486.28 453.452 485.44 452.532 484.36C451.652 483.28 450.992 482 450.552 480.52C450.152 479 449.952 477.32 449.952 475.48V465.04H445.992V457.36L450.552 457L451.752 449.2H460.272V457H467.112V465.04H460.272V475.3C460.272 476.98 460.632 478.14 461.352 478.78C462.072 479.38 462.912 479.68 463.872 479.68C464.352 479.68 464.812 479.64 465.252 479.56C465.732 479.44 466.152 479.32 466.512 479.2L468.072 486.64C467.272 486.88 466.312 487.12 465.192 487.36C464.072 487.6 462.672 487.72 460.992 487.72ZM472.656 487V445.24H482.976V454.96L482.496 460.12C483.536 459.2 484.776 458.34 486.216 457.54C487.696 456.7 489.456 456.28 491.496 456.28C494.776 456.28 497.156 457.4 498.636 459.64C500.116 461.84 500.856 464.8 500.856 468.52V487H490.536V469.84C490.536 467.92 490.296 466.64 489.816 466C489.336 465.36 488.576 465.04 487.536 465.04C486.576 465.04 485.776 465.24 485.136 465.64C484.496 466.04 483.776 466.6 482.976 467.32V487H472.656Z"></path>
</g>
<rect fill="white" height="16" width="64" y="550" x="64"></rect>
<path fill="url(#paint1_linear_19584_163746)" d="M956.894 397.356C951.648 403.964 941.009 400.343 940.883 391.907L939.034 268.51H1022.01C1037.03 268.51 1045.42 285.868 1036.07 297.638L956.894 397.356Z"></path>
<path fill-opacity="0.2" fill="url(#paint2_linear_19584_163746)" d="M956.894 397.356C951.648 403.964 941.009 400.343 940.883 391.907L939.034 268.51H1022.01C1037.03 268.51 1045.42 285.868 1036.07 297.638L956.894 397.356Z"></path>
<path fill="#3ECF8E" d="M923.15 198.799C928.397 192.191 939.035 195.812 939.162 204.249L939.972 327.646H858.038C843.01 327.646 834.628 310.288 843.973 298.518L923.15 198.799Z"></path>
</g>
<defs>
<filter color-interpolation-filters="sRGB" filterUnits="userSpaceOnUse" height="196.76" width="595.684" y="298.961" x="64.3203" id="filter0_d_19584_163746">
<feFlood result="BackgroundImageFix" flood-opacity="0"></feFlood>
<feColorMatrix result="hardAlpha" values="0 0 0 0 0 0 0 0 0 0 0 0 0 0 0 0 0 0 127 0" type="matrix" in="SourceAlpha"></feColorMatrix>
<feOffset dy="4"></feOffset>
<feGaussianBlur stdDeviation="2"></feGaussianBlur>
<feColorMatrix values="0 0 0 0 0 0 0 0 0 0 0 0 0 0 0 0 0 0 0.1 0" type="matrix"></feColorMatrix>
<feBlend result="effect1_dropShadow_19584_163746" in2="BackgroundImageFix" mode="normal"></feBlend>
<feBlend result="shape" in2="effect1_dropShadow_19584_163746" in="SourceGraphic" mode="normal"></feBlend>
</filter>
<linearGradient gradientUnits="userSpaceOnUse" y2="630" x2="600" y1="0" x1="600" id="paint0_linear_19584_163746">
<stop stop-opacity="0"></stop>
<stop stop-opacity="0.2" offset="1"></stop>
</linearGradient>
<linearGradient gradientUnits="userSpaceOnUse" y2="326.797" x2="1012.78" y1="295.87" x1="939.034" id="paint1_linear_19584_163746">
<stop stop-color="#249361"></stop>
<stop stop-color="#3ECF8E" offset="1"></stop>
</linearGradient>
<linearGradient gradientUnits="userSpaceOnUse" y2="314.414" x2="939.971" y1="251.107" x1="906.341" id="paint2_linear_19584_163746">
<stop></stop>
<stop stop-opacity="0" offset="1"></stop>
</linearGradient>
<clipPath id="clip0_19584_163746">
<rect fill="white" height="630" width="1200"></rect>
</clipPath>
<clipPath id="clip1_19584_163746">
<rect transform="translate(160 406)" fill="white" height="160" width="1040"></rect>
</clipPath>
</defs>
</svg>
